<svg xmlns="http://www.w3.org/2000/svg" fill="currentColor" viewBox="0 0 24 24" height="24" width="24">
  <path d="M5 16c0.55228 0 1 0.4477 1 1v2c0 0.5523 -0.44772 1 -1 1H3c-0.55228 0 -1 -0.4477 -1 -1v-2c0 -0.5523 0.44772 -1 1 -1zm16 0c0.5523 0 1 0.4477 1 1v2c0 0.5523 -0.4477 1 -1 1H9c-0.55228 0 -1 -0.4477 -1 -1v-2c0 -0.5523 0.44772 -1 1 -1zM5 10c0.55228 0 1 0.4477 1 1v2c0 0.5523 -0.44772 1 -1 1H3c-0.55228 0 -1 -0.4477 -1 -1v-2c0 -0.5523 0.44772 -1 1 -1zm16 0c0.5523 0 1 0.4477 1 1v2c0 0.5523 -0.4477 1 -1 1H9c-0.55228 0 -1 -0.4477 -1 -1v-2c0 -0.5523 0.44772 -1 1 -1zM5 4c0.55228 0 1 0.44772 1 1v2c0 0.55228 -0.44772 1 -1 1H3c-0.55228 0 -1 -0.44772 -1 -1V5c0 -0.55228 0.44772 -1 1 -1zm16 0c0.5523 0 1 0.44772 1 1v2c0 0.55228 -0.4477 1 -1 1H9c-0.55228 0 -1 -0.44772 -1 -1V5c0 -0.55228 0.44772 -1 1 -1z" stroke-width="1"></path>
</svg>
