<svg xmlns="http://www.w3.org/2000/svg" fill="none" viewBox="0 0 16 13">
  <path
    d="M2.46405 5.60547L0 9.82796V2.05524C0 1.07462 0.797274 0.277344 1.77789 0.277344H5.04199C5.51425 0.277344 5.96705 0.463467 6.30041 0.796822L7.03657 1.53298C7.36992 1.86634 7.82273 2.05246 8.29498 2.05246L11.5563 2.05524C12.5369 2.05524 13.3342 2.85251 13.3342 3.83313V4.72208H4.00026C3.36689 4.72208 2.78351 5.05821 2.46405 5.60547ZM3.23077 6.05272C3.39189 5.7777 3.68357 5.61102 4.00026 5.61102H15.1121C15.4316 5.61102 15.7232 5.78048 15.8816 6.05827C16.0399 6.33607 16.0399 6.67498 15.8788 6.95L12.7675 12.2837C12.6092 12.5559 12.3175 12.7226 12.0008 12.7226H0.888947C0.569481 12.7226 0.277796 12.5531 0.119452 12.2753C-0.0388914 11.9975 -0.0388914 11.6586 0.12223 11.3836L3.23354 6.04994L3.23077 6.05272Z"
    fill="currentColor"
  />
</svg>
