<svg width="32" height="32" viewBox="0 0 32 32" fill="none" xmlns="http://www.w3.org/2000/svg">
<path opacity="0.4" d="M6.09998 23.0688C5.31873 23.85 5.31873 25.1188 6.09998 25.9C8.83123 28.6313 12.4187 30 16 30C19.5812 30 23.1687 28.6313 25.9 25.9C28.6312 23.1688 30 19.5813 30 16C30 12.4188 28.6312 8.83127 25.9 6.10002C20.45 0.650021 11.6312 0.63127 6.16248 6.03752C7.10623 6.98127 8.04998 7.92502 8.99373 8.86877C12.9062 5.02502 19.1875 5.04377 23.075 8.93127C26.9812 12.8375 26.9812 19.1688 23.075 23.075C19.1687 26.9813 12.8375 26.9813 8.93123 23.075C8.14998 22.2938 6.88123 22.2938 6.09998 23.075V23.0688Z" fill="black"/>
<path d="M10.5 14H2.5C1.66875 14 1 13.3313 1 12.5V4.50002C1 3.89377 1.3625 3.34377 1.925 3.11252C2.4875 2.88127 3.13125 3.00627 3.5625 3.43752L11.5625 11.4375C11.9938 11.8688 12.1187 12.5125 11.8875 13.075C11.6562 13.6375 11.1062 14 10.5 14Z" fill="black"/>
</svg>
