<svg width="20" height="20" viewBox="0 0 20 20" fill="none" xmlns="http://www.w3.org/2000/svg">
<path d="M16.2508 8.12344C16.2508 9.9165 15.6687 11.5728 14.6882 12.9166L19.6338 17.8661C20.1221 18.3544 20.1221 19.1474 19.6338 19.6357C19.1455 20.124 18.3525 20.124 17.8642 19.6357L12.9186 14.6863C11.5748 15.6707 9.91845 16.2488 8.1254 16.2488C3.6369 16.2488 0 12.6119 0 8.12344C0 3.63494 3.6369 -0.00195312 8.1254 -0.00195312C12.6139 -0.00195312 16.2508 3.63494 16.2508 8.12344ZM8.1254 13.7487C8.86412 13.7487 9.59561 13.6032 10.2781 13.3205C10.9606 13.0378 11.5807 12.6235 12.1031 12.1011C12.6254 11.5788 13.0398 10.9586 13.3225 10.2761C13.6052 9.59365 13.7507 8.86217 13.7507 8.12344C13.7507 7.38472 13.6052 6.65323 13.3225 5.97074C13.0398 5.28825 12.6254 4.66813 12.1031 4.14577C11.5807 3.62342 10.9606 3.20906 10.2781 2.92637C9.59561 2.64367 8.86412 2.49817 8.1254 2.49817C7.38668 2.49817 6.65519 2.64367 5.9727 2.92637C5.29021 3.20906 4.67008 3.62342 4.14773 4.14577C3.62537 4.66813 3.21102 5.28825 2.92832 5.97074C2.64562 6.65323 2.50012 7.38472 2.50012 8.12344C2.50012 8.86217 2.64562 9.59365 2.92832 10.2761C3.21102 10.9586 3.62537 11.5788 4.14773 12.1011C4.67008 12.6235 5.29021 13.0378 5.9727 13.3205C6.65519 13.6032 7.38668 13.7487 8.1254 13.7487Z" fill="currentColor"/>
</svg>
