<svg width="36" height="32" viewBox="0 0 36 32" fill="none" xmlns="http://www.w3.org/2000/svg">
<path opacity="0.4" d="M18 2H20H22H24V6H22H20H18V2ZM18 10H20H26H28V14H26H20H18V10ZM18 18H20H30H32V22H30H20H18V18ZM18 26H20H34H36V30H34H20H18V26Z" fill="#6B7280"/>
<path d="M7.9998 30L9.48105 28.375L14.4811 22.875L15.8248 21.3937L12.8623 18.7L11.5186 20.1812L9.9998 21.8563V4.03125V2.03125H5.9998V4.03125V21.8563L4.48105 20.1812L3.1373 18.7L0.174805 21.3937L1.51855 22.875L6.51855 28.375L7.9998 30Z" fill="black"/>
</svg>
