<svg xmlns="http://www.w3.org/2000/svg" viewBox="0 0 16 16">
  <path d="M11.6586125 4.34135v7.3173c0 0.57731875 -0.4680125 1.045325 -1.04533125 1.045325H1.205325c-0.57731875 0 -1.045325 -0.46800625 -1.045325 -1.045325V4.34135c0 -0.5773375 0.46799375 -1.04535 1.045325 -1.045325h9.40795625c0.5773 0.000025 1.04533125 0.468025 1.04533125 1.045325Zm3.7893125 0.0163375c-0.14914375 -0.0365 -0.306775 -0.00749375 -0.43315625 0.07970625l-2.1945375 1.46280625c-0.07270625 0.04850625 -0.11635 0.13015 -0.11629375 0.21755625v3.7644875c-0.00005625 0.08740625 0.0435875 0.16905 0.11629375 0.21755625l2.20695 1.4713c0.16863125 0.11249375 0.38710625 0.11733125 0.56055625 0.0124125 0.15985625 -0.10161875 0.255375 -0.27904375 0.2521875 -0.4684375V4.8640125c0.00011875 -0.23843125 -0.1611375 -0.44671875 -0.392 -0.506325Z" fill="currentColor"></path>
</svg>
