<svg xmlns="http://www.w3.org/2000/svg" fill="currentColor" viewBox="0 0 24 24">
  <path d="m22 22 -1.4248 1.4248 -3.8008 -3.8008c-0.8415 0.5283 -1.7759 0.9227 -2.7744 1.1494V18.708c0.4595 -0.1368 0.8972 -0.3233 1.3115 -0.5469L12 14.8496v5.1943l-1.6807 -1.5605 -3.21188 -2.9824H3V8.50098h2.65137L0.575195 3.4248 2 2zM14 3.22656c4.0076 0.90973 7 4.4915 7 8.77444 -0.0002 1.7552 -0.5048 3.3917 -1.374 4.7754l-1.4619 -1.4619c0.5318 -0.9863 0.8358 -2.1142 0.8359 -3.3135 0 -3.17085 -2.1088 -5.84828 -5 -6.70901zM5 10.501v3h2.89258l0.28808 0.2676L10 15.457v-2.6074L7.65137 10.501zm9 -2.53225c1.4815 0.73642 2.5 2.26555 2.5 4.03225 -0.0001 0.4957 -0.0832 0.9721 -0.2314 1.4179L14 11.1504zm-2 1.18164L9.30664 6.45703l1.01266 -0.93848L12 3.95801z" stroke-width="1"></path>
</svg>
