<svg xmlns="http://www.w3.org/2000/svg" fill="none" viewBox="0 0 24 24">
  <path fill="#000000" d="M14 3.22607c4.0077 0.9097 7 4.49147 7 8.77443 -0.0002 4.2827 -2.9926 7.8627 -7 8.7724v-2.0654c2.891 -0.8607 4.9998 -3.5364 5 -6.707 0 -3.17088 -2.1087 -5.84832 -5 -6.709zM12 20.0435l-1.6807 -1.5606 -3.21188 -2.9824H4c-0.55212 0 -0.99974 -0.448 -1 -1V9.50049c0 -0.55229 0.44772 -1 1 -1h3.10742l3.21188 -2.98242L12 3.95752zm2 -12.07524c1.4816 0.73638 2.5 2.26544 2.5 4.03224 -0.0001 1.7664 -1.0187 3.2938 -2.5 4.0303zM8.18066 10.2329c-0.18493 0.1716 -0.42836 0.2676 -0.68066 0.2676H5v3h2.5c0.25241 0 0.4957 0.0958 0.68066 0.2676L10 15.4565V8.54346z" stroke-width="1"></path>
</svg>
