<svg width="20" height="18" viewBox="0 0 20 18" fill="none" xmlns="http://www.w3.org/2000/svg">
<path d="M19.9948 8.87382C19.9948 9.49899 19.4738 9.9887 18.8834 9.9887H17.772L17.7963 15.5526C17.7963 15.6464 17.7893 15.7402 17.7789 15.834V16.3966C17.7789 17.1642 17.1572 17.7859 16.3897 17.7859H15.834C15.7958 17.7859 15.7575 17.7859 15.7193 17.7824C15.6707 17.7859 15.6221 17.7859 15.5735 17.7859L14.4447 17.7824H13.6112C12.8436 17.7824 12.2219 17.1607 12.2219 16.3931V15.5596V13.3368C12.2219 12.722 11.7253 12.2254 11.1105 12.2254H8.88772C8.27297 12.2254 7.77632 12.722 7.77632 13.3368V15.5596V16.3931C7.77632 17.1607 7.15463 17.7824 6.38707 17.7824H5.55352H4.44559C4.3935 17.7824 4.3414 17.7789 4.2893 17.7754C4.24763 17.7789 4.20595 17.7824 4.16427 17.7824H3.60857C2.84101 17.7824 2.21932 17.1607 2.21932 16.3931V12.5032C2.21932 12.472 2.21932 12.4372 2.2228 12.406V9.98522H1.1114C0.486237 9.98522 0 9.49899 0 8.87035C0 8.55777 0.104194 8.27992 0.347312 8.0368L9.24892 0.27785C9.49204 0.0347312 9.76989 0 10.013 0C10.2561 0 10.534 0.0694624 10.7424 0.243118L19.6127 8.04027C19.8906 8.28339 20.0295 8.56124 19.9948 8.87382Z" fill="white"/>
</svg>
