<svg width="20" height="16" viewBox="0 0 20 16" fill="none" xmlns="http://www.w3.org/2000/svg">
<path d="M9.5 0.958337V12.7083L3 11.4583V1.04271C3 0.423962 3.55625 -0.0479126 4.16563 0.0552124L9.5 0.958337ZM2.80312 12.6177L10 14.0583L17.1969 12.6177C17.6656 12.524 18 12.1146 18 11.6365V0.855212L18.8031 0.695837C19.4219 0.573962 20 1.04584 20 1.67709V13.1365C20 13.6146 19.6656 14.024 19.1969 14.1177L10 15.9583L0.803125 14.1177C0.3375 14.0271 0 13.6146 0 13.1396V1.67709C0 1.04584 0.578125 0.573962 1.19687 0.698962L2 0.858337V11.6396C2 12.1177 2.3375 12.5271 2.80312 12.6208V12.6177ZM10.5 12.7083V0.958337L15.8344 0.0552124C16.4438 -0.0479126 17 0.423962 17 1.04271V11.4583L10.5 12.7083Z" fill="currentColor"/>
</svg>
