<svg width="20" height="15" viewBox="0 0 20 15" fill="none" xmlns="http://www.w3.org/2000/svg">
<path d="M1.56092 0C0.943737 0 0.385143 0.363281 0.135143 0.925781C-0.114857 1.48828 -0.0132941 2.14844 0.400768 2.60547L4.37342 7.02344V11.875C4.37342 12.2695 4.55702 12.6406 4.87342 12.875L7.37342 14.75C7.75233 15.0352 8.26014 15.0781 8.68202 14.8672C9.10389 14.6563 9.37342 14.2227 9.37342 13.75V7.02344L13.3461 2.60938C13.7601 2.15234 13.8617 1.49219 13.6117 0.929688C13.3617 0.367188 12.8031 0 12.1859 0H1.56092ZM13.7484 12.5C13.057 12.5 12.4984 13.0586 12.4984 13.75C12.4984 14.4414 13.057 15 13.7484 15H18.7484C19.4398 15 19.9984 14.4414 19.9984 13.75C19.9984 13.0586 19.4398 12.5 18.7484 12.5H13.7484ZM12.4984 7.5C12.4984 8.19141 13.057 8.75 13.7484 8.75H18.7484C19.4398 8.75 19.9984 8.19141 19.9984 7.5C19.9984 6.80859 19.4398 6.25 18.7484 6.25H13.7484C13.057 6.25 12.4984 6.80859 12.4984 7.5ZM16.2484 0C15.557 0 14.9984 0.558594 14.9984 1.25C14.9984 1.94141 15.557 2.5 16.2484 2.5H18.7484C19.4398 2.5 19.9984 1.94141 19.9984 1.25C19.9984 0.558594 19.4398 0 18.7484 0H16.2484Z" fill="black"/>
</svg>
