<?xml version="1.0" encoding="UTF-8"?><svg id="Layer_2" xmlns="http://www.w3.org/2000/svg" width="1088" height="320" viewBox="0 0 277.53 83.6"><defs><style>.cls-1{stroke:#000;stroke-miterlimit:10;stroke-width:.25px;}.cls-2{fill:#eeddb9;}</style></defs><g id="logo_group"><path d="M18.03.07c-.22.64-.44,1.28-.66,1.91C6.67,32.97-2.18,54.27,22.76,60.23L0,83.6c50.66-6.57,116.6-34.5,277.53-29.87-4.05-8.83-9.39-13.33-23.65-14.52L266.64,0l-124.06.04-3.8,4.48L134.86.04,18.03.07Z"/><path class="cls-2" d="M19.09,52.24c5.36-1.01,26.51-9.66,54.99-11.28l-13.19,6.08c48.37-9.36,155.39-6.43,180.31-3.66l-.07,2.39c-101.81-2.26-150.04.29-229.86,31.27l42.28-24.3-34.46-.49Z"/><path class="cls-2" d="M243.33,43.57l-.04,2.25,19.89.85c.11-1.12-6.8-2.08-19.85-3.1Z"/><polygon class="cls-2" points="25.77 55.08 45.09 54.86 18.03 70.04 35.69 56.78 25.77 55.08"/><path class="cls-2" d="M28.31,73.71c17.81-7.77,33.7-11.96,47.24-14.95l.04,4.28-47.28,10.67Z"/><path class="cls-2" d="M77.96,58.3v4.22c8.34-1.69,16.36-3.21,23.99-4.5l-.05-4.44c-7.97,1.26-15.95,2.95-23.94,4.72Z"/><path class="cls-2" d="M104.34,53.18l.05,4.35c4.46-.82,14.65-2.55,21.95-3.44v-3.66c-4.14.34-15.54,1.77-22.01,2.75Z"/><path class="cls-2" d="M128.6,50.22v3.59c14.49-1.56,28.34-2.42,42.6-3.06v-3.25c-17.57.68-32.25,1.75-42.6,2.72Z"/><path class="cls-2" d="M173.52,47.45v3.17c37.48-1.59,90.07-.82,89.66-1.93-13.02-.73-57.82-2.02-89.66-1.24Z"/><path class="cls-2" d="M15.52,29.14c12.16-8.29-3.02,11.52,3.25,11.52,10.9-1.2,19.55.18,24-5.61,3.82-5.02,4.99-8.96,7.24-17.36,1.61-7.35.56-10.57-6.68-10.57-5.93,0-8.82.06-12.94.52-10.97,1.17-9.44,5.43-14.87,21.5Z"/><path class="cls-1" d="M28.99,16.96c-1.28,2.3-2.2,5.77-3.14,8.91-1.37,4.96-.07,6.41,4.11,6.6,3.3.15,7.62-1.27,9.77-5.44,1.4-3.08,5.34-13-.64-14.04-2.94-.37-7.83-.02-10.09,3.98Z"/><path class="cls-2" d="M59.33,7.12l-10.7,31.85,10.64-.83s2.22-8.31,2.93-9.22,16.34,1.22,21.2-6.2c1.92-2.63,2.86-6.17,3.58-9.92.65-3.18-.53-5.25-4.41-5.68h-23.25Z"/><path d="M66.92,13.72l-2.71,7.93h4.74c3.26-.03,5.69-.86,6.58-3.19,1.08-2.48,1.45-4.43-.46-4.73h-8.15Z"/><polygon class="cls-2" points="94.22 7.12 84.1 36.27 109.97 35.27 112.48 28.1 96.39 28.99 98 24.36 110.55 23.9 112.69 17.74 100.21 18 101.68 13.75 115.99 13.75 118.29 7.12 94.22 7.12"/><polygon class="cls-2" points="124.76 7.15 115.14 35.27 125.18 34.98 129.38 19.58 135.44 34.89 143.83 34.79 153.27 7.17 143.45 7.12 138.77 21.69 132.86 7.14 124.76 7.15"/><path class="cls-2" d="M158.29,7.11l-9.42,27.68,22.56-.26c5.46.1,9.77-2.85,12.89-8.65l1.91-5.26c1.9-6.79,2.25-13.56-7.61-13.56l-20.33.05Z"/><path d="M165.46,14.4l-4.65,13.54h2.98c4.29,0,7.1-1.02,8.34-2,2.17-1.72,3.24-5.69,3.51-8.25.28-1.83-.67-3.3-2.51-3.3h-7.67Z"/><path class="cls-2" d="M195.11,7.12l-9.41,27.57,21.85.6c9.24.04,12.63-10.98,7.67-14.65l.11-.31c3.9-.65,6.37-8.64,3.41-11.61-1.16-1.16-4.04-1.6-7.63-1.61h-16Z"/><path d="M199.97,13.72l-1.58,4.59,8.1.08c1.39.01,2.7-.94,3.2-2.47.41-1.26.31-2.19-2.1-2.19l-7.62-.02Z"/><path d="M196.7,23.34l-2.15,6.21,11.25.15c3.71-.26,4.67-5.44.24-5.99-1.95-.37-9.33-.36-9.33-.36Z"/><path class="cls-2" d="M257.84,7.05l-2.82,7.5h-18.9c-1.23,4.64-2.34,7.41-3.29,10.66-.55,1.72-.95,3.25,1.22,3.25l15.4-.15-2.71,8.05-19.94-.67c-4.38-.5-6-2.3-5.72-5.94,1.41-7.23,3.12-13.72,6.16-18.1,2.47-2.82,6.7-4.53,10.74-4.66,3.77.01,15.35-.15,19.84.06Z"/></g></svg>